<svg width="121" height="85" viewBox="0 0 121 85" fill="none" xmlns="http://www.w3.org/2000/svg">
<path d="M102.85 60.7143C106.178 60.7143 108.9 63.4464 108.9 66.7857C108.9 70.125 106.178 72.8571 102.85 72.8571C99.5225 72.8571 96.8 70.125 96.8 66.7857C96.8 63.4464 99.5225 60.7143 102.85 60.7143ZM102.85 48.5714C92.807 48.5714 84.7 56.7071 84.7 66.7857C84.7 76.8643 92.807 85 102.85 85C112.893 85 121 76.8643 121 66.7857C121 56.7071 112.893 48.5714 102.85 48.5714ZM48.4 6.07143H18.15V18.2143H48.4V6.07143ZM90.75 0H72.6V12.1429H90.75V28.2321L69.575 54.6429H48.4V24.2857H24.2C10.8295 24.2857 0 35.1536 0 48.5714V66.7857H12.1C12.1 76.8643 20.207 85 30.25 85C40.293 85 48.4 76.8643 48.4 66.7857H75.625L102.85 32.4821V12.1429C102.85 8.92237 101.575 5.83379 99.306 3.55656C97.0368 1.27933 93.9591 0 90.75 0M30.25 72.8571C26.9225 72.8571 24.2 70.125 24.2 66.7857H36.3C36.3 70.125 33.5775 72.8571 30.25 72.8571Z" fill="black"/>
</svg>
