<svg width="77" height="13" viewBox="0 0 77 13" fill="none" xmlns="http://www.w3.org/2000/svg">
<path d="M2.59194 12.875L3.69309 8.11464L0 4.91283L4.87895 4.48931L6.77632 0L8.67369 4.48931L13.5526 4.91283L9.85954 8.11464L10.9607 12.875L6.77632 10.3508L2.59194 12.875Z" fill="#F4CE14"/>
<path d="M18.313 12.875L19.4141 8.11464L15.7211 4.91283L20.6 4.48931L22.4974 0L24.3947 4.48931L29.2737 4.91283L25.5806 8.11464L26.6817 12.875L22.4974 10.3508L18.313 12.875Z" fill="#F4CE14"/>
<path d="M34.034 12.875L35.1352 8.11464L31.4421 4.91283L36.3211 4.48931L38.2184 0L40.1158 4.48931L44.9947 4.91283L41.3016 8.11464L42.4028 12.875L38.2184 10.3508L34.034 12.875Z" fill="#F4CE14"/>
<path d="M49.7551 12.875L50.8563 8.11464L47.1632 4.91283L52.0421 4.48931L53.9395 0L55.8368 4.48931L60.7158 4.91283L57.0227 8.11464L58.1239 12.875L53.9395 10.3508L49.7551 12.875Z" fill="#F4CE14"/>
<path d="M65.4762 12.875L66.5773 8.11464L62.8842 4.91283L67.7632 4.48931L69.6605 0L71.5579 4.48931L76.4368 4.91283L72.7438 8.11464L73.8449 12.875L69.6605 10.3508L65.4762 12.875Z" fill="#F4CE14"/>
</svg>
